<svg width="378" height="41" viewBox="0 0 378 41" fill="none" xmlns="http://www.w3.org/2000/svg">
<path d="M0.430664 33V0.799997H11.9307L18.4807 14.1L24.9807 0.799997H36.4807V33H24.3807V21.7L21.5307 27.5H15.3807L12.5307 21.7V33H0.430664ZM39.9814 33V0.799997H65.7314V9.5H52.0814V12.4H63.8314V21.4H52.0814V24.3H65.7314V33H39.9814ZM67.7158 33V0.799997H83.0158C86.4158 0.799997 89.3658 1.35 91.8658 2.45C94.3658 3.51666 96.2992 5.25 97.6658 7.65C99.0325 10.0167 99.7158 13.1667 99.7158 17.1C99.7158 20.8333 99.0325 23.8667 97.6658 26.2C96.3325 28.5333 94.4158 30.25 91.9158 31.35C89.4492 32.45 86.4825 33 83.0158 33H67.7158ZM79.8158 23.8H81.6158C82.8158 23.8 83.8492 23.6333 84.7158 23.3C85.5825 22.9667 86.2492 22.3167 86.7158 21.35C87.1825 20.3833 87.4158 18.9667 87.4158 17.1C87.4158 15.2333 87.1992 13.85 86.7658 12.95C86.3325 12.0167 85.6825 11.4167 84.8158 11.15C83.9825 10.85 82.9158 10.7 81.6158 10.7H79.8158V23.8ZM101.944 33V0.799997H114.044V33H101.944ZM116.521 33L128.921 0.799997H141.471L153.871 33H141.271L138.971 27H131.421L129.121 33H116.521ZM132.721 18.75H137.621L135.171 12.6L132.721 18.75ZM155.388 40.7V33H179.288V40.7H155.388ZM180.778 33L193.178 0.799997H205.728L218.128 33H205.528L203.228 27H195.678L193.378 33H180.778ZM196.978 18.75H201.878L199.428 12.6L196.978 18.75ZM235.661 33.5C229.594 33.5 224.944 32.1 221.711 29.3C218.511 26.5 216.911 22.3667 216.911 16.9C216.911 11.4333 218.594 7.3 221.961 4.5C225.328 1.7 230.178 0.299998 236.511 0.299998C238.578 0.299998 240.428 0.416665 242.061 0.649999C243.728 0.849999 245.328 1.21667 246.861 1.75V12.05C245.328 11.45 243.761 11.05 242.161 10.85C240.594 10.6167 238.978 10.5 237.311 10.5C234.978 10.5 233.044 10.9667 231.511 11.9C230.011 12.8 229.261 14.4667 229.261 16.9C229.261 19.3333 229.794 21.0167 230.861 21.95C231.961 22.85 233.528 23.3 235.561 23.3C236.628 23.3 237.628 23.1833 238.561 22.95V21H233.211V13.7H248.561V30.35C247.194 31.1833 245.444 31.9167 243.311 32.55C241.178 33.1833 238.628 33.5 235.661 33.5ZM251.554 33V0.799997H277.304V9.5H263.654V12.4H275.404V21.4H263.654V24.3H277.304V33H251.554ZM279.288 33V0.799997H289.438L298.438 13.4V0.799997H310.538V33H300.338L291.388 20.4V33H279.288ZM332.304 33.5C325.97 33.5 321.17 32.1 317.904 29.3C314.67 26.5 313.054 22.3667 313.054 16.9C313.054 11.4333 314.654 7.3 317.854 4.5C321.087 1.7 325.87 0.299998 332.204 0.299998C334.27 0.299998 336.087 0.449998 337.654 0.749998C339.254 1.05 340.82 1.48333 342.354 2.05V12.6C339.32 11.2 336.204 10.5 333.004 10.5C330.67 10.5 328.82 10.9667 327.454 11.9C326.087 12.8 325.404 14.4667 325.404 16.9C325.404 19.3333 326.104 21.0167 327.504 21.95C328.904 22.85 330.77 23.3 333.104 23.3C336.304 23.3 339.42 22.6 342.454 21.2V31.75C340.92 32.2833 339.354 32.7 337.754 33C336.187 33.3333 334.37 33.5 332.304 33.5ZM354.092 33V21.3L342.442 0.799997H355.042L360.142 11.05L365.242 0.799997H377.842L366.192 21.3V33H354.092Z" fill="#611192"/>
</svg>
